<svg xmlns="http://www.w3.org/2000/svg" viewBox="2230 1410 3620 1860" fill="#db5c5c" role="img" aria-label="Bellwoods Lane monogram"><path  d="M2286,2370.7c-2.7-1-7-3.1-7.3-6.3c-1.5-4.9,4.3-4.4,7.3-3.3C2294.2,2362.6,2297.4,2374.6,2286,2370.7z"/><path  d="M4057.6,3209.4c152.7-14.1,289.3-91.9,423.7-159.5c166.4-87.4,332.3-174.2,454.6-317.5  C4751.6,2806.6,4122.3,3040.1,4057.6,3209.4z M4083.3,3250.4c-380.5-71.8,807.6-536.4,887.9-563.6  c397.9-734.4-1475.9-418.9-1798.1-333.1c-52.9,13.5-189.6-61.3-102.3-109.1c176.5-134.9,1172.3-466,1154.7-644.4  c-184.3-53.3-382.1-6.3-568.5,16.3c-300.7,51-601.1,103.8-899.6,166.7c-506.2,104.9-1008.6,236.6-1496.8,406.6  c-216.5,77.8-431.6,160.6-638.6,261.3c-105.2,56.3-226.8,101.6-306.8,189.2c12,6,29.9,16.8,39.5,23.5c5.9,3.3,21.5,12.2,17.6,21.6  c-4.9,11.6-29.7,2.1-36.6-1.9c-31.8-11.9-68.4-17-94.2-40.7c-79.1-68.1,173.4-174.7,218.8-205.3  c455.1-226.7,941.8-383.3,1431.1-517.6c440.7-120,888.2-214.1,1337.9-293.4c243.1-40.5,485.7-90.9,732.1-106.8  c125.1-13,476.7,14.2,384,207.6c-70.1,107.8-194.1,166.2-299.8,233.5c-160.5,89.3-326.8,167.5-492.9,245.6  c421.5-44.7,980.5-122.8,1368.1,75.1c131.4,65.6,230.8,213.7,169.3,360.8c354-127.1,715.4-231.6,1077.9-331.8  c357.6-98.5,716.7-203.7,1088.2-230.9c18.6-6,77.7,30.4,41.4,39.7c-413.5,18.9-811.1,135-1207.1,246.7  C5748,2462,5406.5,2562.7,5072,2682.8c-96.1,177.7-277.9,286.2-447.7,384.1C4456.5,3153.6,4279.3,3265.5,4083.3,3250.4z"/><path  d="M2946.6,2879.3c-15.1-6.9-39.5-19.9-36.3-39.3c116.9-298.9,250.2-591.2,380.7-884.4  c59.3-132.4,117.5-265.3,183.2-394.6c29-48.2,95-190.1,159.9-114.1c0.2,8.4,3.2,22.9-10.9,20.7c-140.1,323.2-294.5,640.1-435.5,963  c-64.6,148.4-129.3,297.1-187.5,448.3C2988.3,2895,2962.1,2885.1,2946.6,2879.3z"/></svg>