<svg xmlns="http://www.w3.org/2000/svg" viewBox="-29.4600080871582 168.95500915527344 633.9200134277344 237.09000045776367"><rect height="100%" width="100%" x="-29.4600080871582" y="168.95500915527344" fill="#ffffff"/> <svg xmlns="http://www.w3.org/2000/svg" xmlns:xlink="http://www.w3.org/1999/xlink" version="1.1" id="Layer_1" x="189.94999618530272" y="238.95500915527344" viewBox="226.26812744140625 1424.947021484375 7082.8935546875 1826.833251953125" xml:space="preserve" height="50.3203125" width="195.09905822585102" preserveAspectRatio="xMinYMin" enable-background="new 0 0 7500 5000" style="overflow: visible;"><path class="st0" d="M2286,2370.7c-2.7-1-7-3.1-7.3-6.3c-1.5-4.9,4.3-4.4,7.3-3.3C2294.2,2362.6,2297.4,2374.6,2286,2370.7z" style="fill: #db5c5c; fill-opacity: 1;"></path><path class="st0" d="M4057.6,3209.4c152.7-14.1,289.3-91.9,423.7-159.5c166.4-87.4,332.3-174.2,454.6-317.5  C4751.6,2806.6,4122.3,3040.1,4057.6,3209.4z M4083.3,3250.4c-380.5-71.8,807.6-536.4,887.9-563.6  c397.9-734.4-1475.9-418.9-1798.1-333.1c-52.9,13.5-189.6-61.3-102.3-109.1c176.5-134.9,1172.3-466,1154.7-644.4  c-184.3-53.3-382.1-6.3-568.5,16.3c-300.7,51-601.1,103.8-899.6,166.7c-506.2,104.9-1008.6,236.6-1496.8,406.6  c-216.5,77.8-431.6,160.6-638.6,261.3c-105.2,56.3-226.8,101.6-306.8,189.2c12,6,29.9,16.8,39.5,23.5c5.9,3.3,21.5,12.2,17.6,21.6  c-4.9,11.6-29.7,2.1-36.6-1.9c-31.8-11.9-68.4-17-94.2-40.7c-79.1-68.1,173.4-174.7,218.8-205.3  c455.1-226.7,941.8-383.3,1431.1-517.6c440.7-120,888.2-214.1,1337.9-293.4c243.1-40.5,485.7-90.9,732.1-106.8  c125.1-13,476.7,14.2,384,207.6c-70.1,107.8-194.1,166.2-299.8,233.5c-160.5,89.3-326.8,167.5-492.9,245.6  c421.5-44.7,980.5-122.8,1368.1,75.1c131.4,65.6,230.8,213.7,169.3,360.8c354-127.1,715.4-231.6,1077.9-331.8  c357.6-98.5,716.7-203.7,1088.2-230.9c18.6-6,77.7,30.4,41.4,39.7c-413.5,18.9-811.1,135-1207.1,246.7  C5748,2462,5406.5,2562.7,5072,2682.8c-96.1,177.7-277.9,286.2-447.7,384.1C4456.5,3153.6,4279.3,3265.5,4083.3,3250.4z" style="fill: #db5c5c; fill-opacity: 1;"></path><path class="st0" d="M2946.6,2879.3c-15.1-6.9-39.5-19.9-36.3-39.3c116.9-298.9,250.2-591.2,380.7-884.4  c59.3-132.4,117.5-265.3,183.2-394.6c29-48.2,95-190.1,159.9-114.1c0.2,8.4,3.2,22.9-10.9,20.7c-140.1,323.2-294.5,640.1-435.5,963  c-64.6,148.4-129.3,297.1-187.5,448.3C2988.3,2895,2962.1,2885.1,2946.6,2879.3z" style="fill: #db5c5c; fill-opacity: 1;"></path></svg> <svg y="325.77500915527344" viewBox="0.75 2.2799999713897705 255.85000610351562 10.270000457763672" x="159.57499801635743" height="10.270000457763672" width="255.85000610351562" xmlns="http://www.w3.org/2000/svg" style="overflow: visible;"><g fill="#874646" fill-opacity="1" style=""><path d="M1.67 4.39L1.75 5.51L1.75 12.44L0.75 12.44L0.75 4.39L1.67 4.39ZM5.67 7.25L5.67 7.25L5.67 7.36Q5.67 8.00 5.52 8.54Q5.37 9.08 5.08 9.47Q4.79 9.87 4.37 10.09Q3.95 10.31 3.41 10.31L3.41 10.31Q2.86 10.31 2.43 10.13Q2.01 9.95 1.71 9.60Q1.42 9.25 1.24 8.76Q1.07 8.27 1.00 7.66L1.00 7.66L1.00 7.06Q1.07 6.41 1.25 5.90Q1.42 5.39 1.72 5.03Q2.01 4.67 2.43 4.48Q2.85 4.29 3.39 4.29L3.39 4.29Q3.94 4.29 4.37 4.50Q4.79 4.71 5.08 5.10Q5.37 5.49 5.52 6.04Q5.67 6.58 5.67 7.25ZM4.67 7.36L4.67 7.36L4.67 7.25Q4.67 6.82 4.58 6.43Q4.48 6.05 4.29 5.76Q4.10 5.46 3.81 5.29Q3.51 5.12 3.10 5.12L3.10 5.12Q2.73 5.12 2.45 5.25Q2.18 5.38 1.98 5.60Q1.79 5.82 1.67 6.09Q1.55 6.37 1.49 6.67L1.49 6.67L1.49 8.06Q1.60 8.43 1.79 8.76Q1.98 9.09 2.30 9.29Q2.63 9.50 3.12 9.50L3.12 9.50Q3.52 9.50 3.81 9.33Q4.10 9.16 4.29 8.86Q4.48 8.57 4.58 8.18Q4.67 7.80 4.67 7.36ZM12.19 4.39L12.22 5.31L12.22 10.21L11.22 10.21L11.22 4.39L12.19 4.39ZM14.03 4.36L14.03 4.36L14.03 5.29Q13.90 5.26 13.79 5.25Q13.68 5.24 13.54 5.24L13.54 5.24Q13.20 5.24 12.94 5.35Q12.67 5.46 12.49 5.65Q12.31 5.84 12.20 6.11Q12.10 6.38 12.07 6.69L12.07 6.69L11.79 6.85Q11.79 6.33 11.89 5.87Q12.00 5.40 12.22 5.05Q12.44 4.69 12.78 4.49Q13.12 4.29 13.59 4.29L13.59 4.29Q13.70 4.29 13.84 4.31Q13.98 4.33 14.03 4.36ZM18.98 7.36L18.98 7.36L18.98 7.24Q18.98 6.61 19.16 6.07Q19.34 5.53 19.69 5.13Q20.03 4.73 20.52 4.51Q21.01 4.29 21.62 4.29L21.62 4.29Q22.23 4.29 22.72 4.51Q23.21 4.73 23.56 5.13Q23.90 5.53 24.09 6.07Q24.27 6.61 24.27 7.24L24.27 7.24L24.27 7.36Q24.27 7.99 24.09 8.53Q23.90 9.07 23.56 9.47Q23.21 9.87 22.72 10.09Q22.24 10.31 21.63 10.31L21.63 10.31Q21.01 10.31 20.53 10.09Q20.04 9.87 19.69 9.47Q19.34 9.07 19.16 8.53Q18.98 7.99 18.98 7.36ZM19.97 7.24L19.97 7.24L19.97 7.36Q19.97 7.80 20.07 8.18Q20.18 8.57 20.38 8.86Q20.59 9.16 20.90 9.33Q21.21 9.50 21.63 9.50L21.63 9.50Q22.03 9.50 22.34 9.33Q22.65 9.16 22.86 8.86Q23.06 8.57 23.17 8.18Q23.27 7.80 23.27 7.36L23.27 7.36L23.27 7.24Q23.27 6.81 23.17 6.43Q23.06 6.04 22.85 5.74Q22.65 5.45 22.34 5.27Q22.03 5.10 21.62 5.10L21.62 5.10Q21.21 5.10 20.90 5.27Q20.59 5.45 20.38 5.74Q20.18 6.04 20.07 6.43Q19.97 6.81 19.97 7.24ZM30.71 4.39L30.80 5.51L30.80 12.44L29.80 12.44L29.80 4.39L30.71 4.39ZM34.71 7.25L34.71 7.25L34.71 7.36Q34.71 8.00 34.56 8.54Q34.41 9.08 34.13 9.47Q33.84 9.87 33.42 10.09Q33.00 10.31 32.46 10.31L32.46 10.31Q31.91 10.31 31.48 10.13Q31.06 9.95 30.76 9.60Q30.47 9.25 30.29 8.76Q30.12 8.27 30.05 7.66L30.05 7.66L30.05 7.06Q30.12 6.41 30.29 5.90Q30.47 5.39 30.76 5.03Q31.06 4.67 31.48 4.48Q31.89 4.29 32.44 4.29L32.44 4.29Q32.99 4.29 33.41 4.50Q33.84 4.71 34.13 5.10Q34.42 5.49 34.57 6.04Q34.71 6.58 34.71 7.25ZM33.72 7.36L33.72 7.36L33.72 7.25Q33.72 6.82 33.62 6.43Q33.53 6.05 33.34 5.76Q33.15 5.46 32.86 5.29Q32.56 5.12 32.15 5.12L32.15 5.12Q31.78 5.12 31.50 5.25Q31.22 5.38 31.03 5.60Q30.84 5.82 30.72 6.09Q30.59 6.37 30.54 6.67L30.54 6.67L30.54 8.06Q30.64 8.43 30.84 8.76Q31.03 9.09 31.35 9.29Q31.67 9.50 32.16 9.50L32.16 9.50Q32.57 9.50 32.86 9.33Q33.15 9.16 33.34 8.86Q33.53 8.57 33.62 8.18Q33.72 7.80 33.72 7.36ZM42.68 10.31L42.68 10.31Q42.08 10.31 41.59 10.11Q41.09 9.90 40.74 9.52Q40.39 9.15 40.20 8.63Q40.01 8.12 40.01 7.50L40.01 7.50L40.01 7.28Q40.01 6.57 40.22 6.01Q40.43 5.46 40.79 5.07Q41.15 4.68 41.61 4.48Q42.07 4.29 42.55 4.29L42.55 4.29Q43.18 4.29 43.63 4.50Q44.09 4.72 44.38 5.10Q44.67 5.48 44.81 6.00Q44.94 6.52 44.94 7.13L44.94 7.13L44.94 7.58L40.60 7.58L40.60 6.77L43.95 6.77L43.95 6.69Q43.93 6.31 43.79 5.94Q43.66 5.58 43.36 5.34Q43.06 5.10 42.55 5.10L42.55 5.10Q42.22 5.10 41.93 5.24Q41.65 5.39 41.44 5.67Q41.24 5.95 41.13 6.35Q41.01 6.75 41.01 7.28L41.01 7.28L41.01 7.50Q41.01 7.92 41.13 8.28Q41.24 8.64 41.47 8.92Q41.69 9.19 42.01 9.35Q42.33 9.50 42.74 9.50L42.74 9.50Q43.26 9.50 43.63 9.29Q43.99 9.07 44.27 8.71L44.27 8.71L44.87 9.19Q44.68 9.47 44.39 9.73Q44.10 9.99 43.68 10.15Q43.26 10.31 42.68 10.31ZM51.36 4.39L51.39 5.31L51.39 10.21L50.39 10.21L50.39 4.39L51.36 4.39ZM53.20 4.36L53.20 4.36L53.20 5.29Q53.07 5.26 52.96 5.25Q52.85 5.24 52.72 5.24L52.72 5.24Q52.37 5.24 52.11 5.35Q51.85 5.46 51.66 5.65Q51.48 5.84 51.38 6.11Q51.27 6.38 51.24 6.69L51.24 6.69L50.96 6.85Q50.96 6.33 51.06 5.87Q51.17 5.40 51.39 5.05Q51.61 4.69 51.95 4.49Q52.29 4.29 52.76 4.29L52.76 4.29Q52.87 4.29 53.01 4.31Q53.15 4.33 53.20 4.36ZM57.70 4.39L60.85 4.39L60.85 5.16L57.70 5.16L57.70 4.39ZM58.77 8.76L58.77 2.98L59.76 2.98L59.76 8.77Q59.76 9.06 59.85 9.21Q59.94 9.36 60.09 9.41Q60.23 9.46 60.40 9.46L60.40 9.46Q60.52 9.46 60.66 9.43Q60.80 9.41 60.87 9.39L60.87 9.39L60.87 10.21Q60.75 10.24 60.56 10.28Q60.37 10.31 60.10 10.31L60.10 10.31Q59.74 10.31 59.43 10.17Q59.13 10.02 58.95 9.68Q58.77 9.34 58.77 8.76L58.77 8.76ZM67.52 10.73L67.93 9.60L69.55 4.39L70.61 4.39L68.28 11.10Q68.20 11.32 68.07 11.57Q67.94 11.82 67.74 12.04Q67.53 12.27 67.24 12.41Q66.96 12.55 66.56 12.55L66.56 12.55Q66.44 12.55 66.26 12.52Q66.08 12.49 66.00 12.47L66.00 12.47L65.99 11.66Q66.04 11.67 66.13 11.67Q66.23 11.68 66.26 11.68L66.26 11.68Q66.60 11.68 66.84 11.59Q67.07 11.50 67.24 11.30Q67.40 11.09 67.52 10.73L67.52 10.73ZM65.66 4.39L66.75 4.39L68.26 8.91L68.51 9.95L67.80 10.32L65.66 4.39ZM82.89 4.39L83.89 4.39L83.89 10.21L82.89 10.21L82.89 4.39ZM82.82 2.85L82.82 2.85Q82.82 2.61 82.97 2.44Q83.11 2.28 83.40 2.28L83.40 2.28Q83.69 2.28 83.84 2.44Q84.00 2.61 84.00 2.85L84.00 2.85Q84.00 3.08 83.84 3.25Q83.69 3.41 83.40 3.41L83.40 3.41Q83.11 3.41 82.97 3.25Q82.82 3.08 82.82 2.85ZM90.72 4.39L90.77 5.63L90.77 10.21L89.78 10.21L89.78 4.39L90.72 4.39ZM90.54 7.08L90.54 7.08L90.12 7.06Q90.13 6.47 90.30 5.96Q90.47 5.45 90.78 5.08Q91.09 4.70 91.53 4.49Q91.96 4.29 92.49 4.29L92.49 4.29Q92.92 4.29 93.26 4.40Q93.60 4.52 93.85 4.77Q94.09 5.02 94.22 5.42Q94.35 5.82 94.35 6.40L94.35 6.40L94.35 10.21L93.35 10.21L93.35 6.39Q93.35 5.93 93.22 5.65Q93.08 5.38 92.82 5.25Q92.57 5.12 92.19 5.12L92.19 5.12Q91.82 5.12 91.52 5.28Q91.21 5.44 91.00 5.71Q90.78 5.98 90.66 6.34Q90.54 6.69 90.54 7.08ZM101.76 10.21L101.91 9.31L103.50 4.39L104.52 4.39L102.43 10.21L101.76 10.21ZM99.56 4.39L100.58 4.39L102.22 9.33L102.34 10.21L101.67 10.21L99.56 4.39ZM112.17 10.31L112.17 10.31Q111.57 10.31 111.07 10.11Q110.58 9.90 110.23 9.52Q109.88 9.15 109.69 8.63Q109.50 8.12 109.50 7.50L109.50 7.50L109.50 7.28Q109.50 6.57 109.71 6.01Q109.92 5.46 110.28 5.07Q110.64 4.68 111.10 4.48Q111.56 4.29 112.04 4.29L112.04 4.29Q112.67 4.29 113.12 4.50Q113.58 4.72 113.87 5.10Q114.16 5.48 114.29 6.00Q114.43 6.52 114.43 7.13L114.43 7.13L114.43 7.58L110.09 7.58L110.09 6.77L113.44 6.77L113.44 6.69Q113.42 6.31 113.28 5.94Q113.15 5.58 112.85 5.34Q112.55 5.10 112.04 5.10L112.04 5.10Q111.71 5.10 111.42 5.24Q111.14 5.39 110.93 5.67Q110.73 5.95 110.62 6.35Q110.50 6.75 110.50 7.28L110.50 7.28L110.50 7.50Q110.50 7.92 110.62 8.28Q110.73 8.64 110.96 8.92Q111.18 9.19 111.50 9.35Q111.82 9.50 112.23 9.50L112.23 9.50Q112.75 9.50 113.12 9.29Q113.48 9.07 113.76 8.71L113.76 8.71L114.36 9.19Q114.17 9.47 113.88 9.73Q113.59 9.99 113.17 10.15Q112.75 10.31 112.17 10.31ZM123.27 8.66L123.27 8.66Q123.27 8.45 123.17 8.26Q123.08 8.08 122.79 7.93Q122.51 7.77 121.93 7.66L121.93 7.66Q121.45 7.56 121.06 7.42Q120.67 7.28 120.40 7.08Q120.13 6.88 119.98 6.61Q119.84 6.34 119.84 5.98L119.84 5.98Q119.84 5.64 119.99 5.33Q120.14 5.03 120.42 4.79Q120.71 4.55 121.10 4.42Q121.50 4.29 121.99 4.29L121.99 4.29Q122.69 4.29 123.18 4.53Q123.68 4.78 123.94 5.19Q124.20 5.60 124.20 6.10L124.20 6.10L123.21 6.10Q123.21 5.86 123.07 5.63Q122.92 5.40 122.65 5.25Q122.38 5.10 121.99 5.10L121.99 5.10Q121.58 5.10 121.32 5.23Q121.07 5.35 120.95 5.55Q120.84 5.74 120.84 5.96L120.84 5.96Q120.84 6.12 120.89 6.24Q120.95 6.37 121.09 6.47Q121.24 6.58 121.50 6.67Q121.76 6.76 122.17 6.85L122.17 6.85Q122.89 7.01 123.35 7.24Q123.81 7.47 124.04 7.79Q124.26 8.12 124.26 8.59L124.26 8.59Q124.26 8.97 124.10 9.29Q123.95 9.60 123.65 9.83Q123.35 10.06 122.94 10.19Q122.53 10.31 122.02 10.31L122.02 10.31Q121.25 10.31 120.72 10.04Q120.19 9.76 119.91 9.33Q119.64 8.89 119.64 8.41L119.64 8.41L120.64 8.41Q120.66 8.82 120.87 9.06Q121.09 9.30 121.40 9.40Q121.71 9.50 122.02 9.50L122.02 9.50Q122.43 9.50 122.70 9.39Q122.98 9.28 123.12 9.09Q123.27 8.91 123.27 8.66ZM129.14 4.39L132.29 4.39L132.29 5.16L129.14 5.16L129.14 4.39ZM130.21 8.76L130.21 2.98L131.20 2.98L131.20 8.77Q131.20 9.06 131.29 9.21Q131.38 9.36 131.53 9.41Q131.67 9.46 131.84 9.46L131.84 9.46Q131.96 9.46 132.10 9.43Q132.24 9.41 132.31 9.39L132.31 9.39L132.31 10.21Q132.19 10.24 132.00 10.28Q131.81 10.31 131.54 10.31L131.54 10.31Q131.18 10.31 130.87 10.17Q130.57 10.02 130.39 9.68Q130.21 9.34 130.21 8.76L130.21 8.76ZM138.68 4.39L138.73 5.55L138.73 10.21L137.73 10.21L137.73 4.39L138.68 4.39ZM138.52 7.08L138.52 7.08L138.06 7.06Q138.07 6.47 138.22 5.96Q138.37 5.45 138.66 5.08Q138.96 4.70 139.40 4.49Q139.84 4.29 140.42 4.29L140.42 4.29Q140.83 4.29 141.17 4.40Q141.52 4.52 141.77 4.76Q142.02 5.01 142.16 5.40Q142.30 5.78 142.30 6.33L142.30 6.33L142.30 10.21L141.31 10.21L141.31 6.38Q141.31 5.92 141.15 5.65Q141.00 5.38 140.72 5.25Q140.44 5.12 140.07 5.12L140.07 5.12Q139.63 5.12 139.33 5.28Q139.04 5.44 138.86 5.71Q138.68 5.98 138.60 6.34Q138.52 6.69 138.52 7.08ZM142.29 6.53L142.29 6.53L141.62 6.74Q141.63 6.26 141.78 5.82Q141.94 5.38 142.23 5.03Q142.52 4.69 142.95 4.49Q143.38 4.29 143.93 4.29L143.93 4.29Q144.40 4.29 144.76 4.41Q145.13 4.53 145.38 4.79Q145.63 5.04 145.75 5.44Q145.88 5.84 145.88 6.39L145.88 6.39L145.88 10.21L144.88 10.21L144.88 6.38Q144.88 5.89 144.73 5.62Q144.58 5.34 144.30 5.23Q144.02 5.12 143.64 5.12L143.64 5.12Q143.32 5.12 143.06 5.24Q142.81 5.35 142.64 5.55Q142.47 5.74 142.38 5.99Q142.29 6.25 142.29 6.53ZM154.09 10.31L154.09 10.31Q153.48 10.31 152.99 10.11Q152.50 9.90 152.15 9.52Q151.80 9.15 151.61 8.63Q151.42 8.12 151.42 7.50L151.42 7.50L151.42 7.28Q151.42 6.57 151.63 6.01Q151.84 5.46 152.20 5.07Q152.56 4.68 153.01 4.48Q153.47 4.29 153.96 4.29L153.96 4.29Q154.58 4.29 155.04 4.50Q155.49 4.72 155.78 5.10Q156.07 5.48 156.21 6.00Q156.35 6.52 156.35 7.13L156.35 7.13L156.35 7.58L152.01 7.58L152.01 6.77L155.36 6.77L155.36 6.69Q155.33 6.31 155.20 5.94Q155.06 5.58 154.77 5.34Q154.47 5.10 153.96 5.10L153.96 5.10Q153.62 5.10 153.34 5.24Q153.05 5.39 152.85 5.67Q152.64 5.95 152.53 6.35Q152.42 6.75 152.42 7.28L152.42 7.28L152.42 7.50Q152.42 7.92 152.53 8.28Q152.65 8.64 152.87 8.92Q153.10 9.19 153.41 9.35Q153.73 9.50 154.14 9.50L154.14 9.50Q154.67 9.50 155.03 9.29Q155.40 9.07 155.67 8.71L155.67 8.71L156.27 9.19Q156.09 9.47 155.80 9.73Q155.51 9.99 155.09 10.15Q154.66 10.31 154.09 10.31ZM162.74 4.39L162.79 5.63L162.79 10.21L161.80 10.21L161.80 4.39L162.74 4.39ZM162.56 7.08L162.56 7.08L162.14 7.06Q162.15 6.47 162.32 5.96Q162.49 5.45 162.80 5.08Q163.12 4.70 163.55 4.49Q163.98 4.29 164.51 4.29L164.51 4.29Q164.94 4.29 165.28 4.40Q165.62 4.52 165.87 4.77Q166.11 5.02 166.24 5.42Q166.37 5.82 166.37 6.40L166.37 6.40L166.37 10.21L165.37 10.21L165.37 6.39Q165.37 5.93 165.24 5.65Q165.10 5.38 164.85 5.25Q164.59 5.12 164.21 5.12L164.21 5.12Q163.84 5.12 163.54 5.28Q163.23 5.44 163.02 5.71Q162.80 5.98 162.68 6.34Q162.56 6.69 162.56 7.08ZM171.46 4.39L174.60 4.39L174.60 5.16L171.46 5.16L171.46 4.39ZM172.52 8.76L172.52 2.98L173.51 2.98L173.51 8.77Q173.51 9.06 173.60 9.21Q173.70 9.36 173.84 9.41Q173.99 9.46 174.15 9.46L174.15 9.46Q174.28 9.46 174.41 9.43Q174.55 9.41 174.62 9.39L174.62 9.39L174.62 10.21Q174.51 10.24 174.32 10.28Q174.13 10.31 173.86 10.31L173.86 10.31Q173.49 10.31 173.19 10.17Q172.88 10.02 172.70 9.68Q172.52 9.34 172.52 8.76L172.52 8.76ZM187.98 4.39L188.07 5.51L188.07 12.44L187.07 12.44L187.07 4.39L187.98 4.39ZM191.98 7.25L191.98 7.25L191.98 7.36Q191.98 8.00 191.83 8.54Q191.68 9.08 191.39 9.47Q191.11 9.87 190.69 10.09Q190.27 10.31 189.73 10.31L189.73 10.31Q189.17 10.31 188.75 10.13Q188.32 9.95 188.03 9.60Q187.73 9.25 187.56 8.76Q187.38 8.27 187.32 7.66L187.32 7.66L187.32 7.06Q187.38 6.41 187.56 5.90Q187.74 5.39 188.03 5.03Q188.32 4.67 188.74 4.48Q189.16 4.29 189.71 4.29L189.71 4.29Q190.26 4.29 190.68 4.50Q191.11 4.71 191.40 5.10Q191.69 5.49 191.83 6.04Q191.98 6.58 191.98 7.25ZM190.98 7.36L190.98 7.36L190.98 7.25Q190.98 6.82 190.89 6.43Q190.80 6.05 190.61 5.76Q190.42 5.46 190.12 5.29Q189.83 5.12 189.42 5.12L189.42 5.12Q189.04 5.12 188.77 5.25Q188.49 5.38 188.30 5.60Q188.10 5.82 187.98 6.09Q187.86 6.37 187.80 6.67L187.80 6.67L187.80 8.06Q187.91 8.43 188.10 8.76Q188.30 9.09 188.62 9.29Q188.94 9.50 189.43 9.50L189.43 9.50Q189.83 9.50 190.13 9.33Q190.42 9.16 190.61 8.86Q190.80 8.57 190.89 8.18Q190.98 7.80 190.98 7.36ZM200.97 9.21L200.97 9.21L200.97 6.22Q200.97 5.88 200.83 5.62Q200.69 5.37 200.42 5.23Q200.14 5.09 199.74 5.09L199.74 5.09Q199.36 5.09 199.08 5.22Q198.80 5.34 198.64 5.55Q198.48 5.76 198.48 6.00L198.48 6.00L197.49 6.00Q197.49 5.69 197.65 5.39Q197.81 5.08 198.12 4.83Q198.42 4.58 198.85 4.43Q199.27 4.29 199.80 4.29L199.80 4.29Q200.43 4.29 200.92 4.50Q201.41 4.72 201.68 5.15Q201.96 5.58 201.96 6.23L201.96 6.23L201.96 8.94Q201.96 9.23 202.01 9.56Q202.06 9.88 202.16 10.12L202.16 10.12L202.16 10.21L201.13 10.21Q201.05 10.03 201.01 9.75Q200.97 9.46 200.97 9.21ZM199.98 6.68L201.14 6.68L201.15 7.38L200.14 7.38Q199.72 7.38 199.39 7.45Q199.05 7.51 198.83 7.65Q198.60 7.78 198.48 7.98Q198.37 8.19 198.37 8.45L198.37 8.45Q198.37 8.73 198.49 8.95Q198.61 9.18 198.86 9.31Q199.11 9.44 199.48 9.44L199.48 9.44Q199.93 9.44 200.28 9.25Q200.63 9.06 200.84 8.78Q201.05 8.50 201.06 8.23L201.06 8.23L201.49 8.71Q201.45 8.94 201.28 9.21Q201.12 9.49 200.84 9.74Q200.56 9.98 200.18 10.15Q199.81 10.31 199.33 10.31L199.33 10.31Q198.74 10.31 198.30 10.08Q197.86 9.85 197.61 9.46Q197.37 9.07 197.37 8.59L197.37 8.59Q197.37 8.12 197.55 7.76Q197.73 7.41 198.08 7.17Q198.42 6.93 198.90 6.81Q199.39 6.68 199.98 6.68L199.98 6.68ZM208.78 4.39L208.81 5.31L208.81 10.21L207.81 10.21L207.81 4.39L208.78 4.39ZM210.62 4.36L210.62 4.36L210.62 5.29Q210.49 5.26 210.38 5.25Q210.27 5.24 210.13 5.24L210.13 5.24Q209.79 5.24 209.53 5.35Q209.26 5.46 209.08 5.65Q208.90 5.84 208.79 6.11Q208.69 6.38 208.66 6.69L208.66 6.69L208.38 6.85Q208.38 6.33 208.48 5.87Q208.59 5.40 208.81 5.05Q209.03 4.69 209.37 4.49Q209.71 4.29 210.18 4.29L210.18 4.29Q210.29 4.29 210.43 4.31Q210.57 4.33 210.62 4.36ZM215.12 4.39L218.26 4.39L218.26 5.16L215.12 5.16L215.12 4.39ZM216.18 8.76L216.18 2.98L217.18 2.98L217.18 8.77Q217.18 9.06 217.27 9.21Q217.36 9.36 217.51 9.41Q217.65 9.46 217.82 9.46L217.82 9.46Q217.94 9.46 218.08 9.43Q218.21 9.41 218.28 9.39L218.28 9.39L218.29 10.21Q218.17 10.24 217.98 10.28Q217.79 10.31 217.52 10.31L217.52 10.31Q217.16 10.31 216.85 10.17Q216.54 10.02 216.36 9.68Q216.18 9.34 216.18 8.76L216.18 8.76ZM224.66 4.39L224.71 5.63L224.71 10.21L223.72 10.21L223.72 4.39L224.66 4.39ZM224.48 7.08L224.48 7.08L224.06 7.06Q224.07 6.47 224.24 5.96Q224.41 5.45 224.72 5.08Q225.03 4.70 225.47 4.49Q225.90 4.29 226.43 4.29L226.43 4.29Q226.86 4.29 227.20 4.40Q227.54 4.52 227.79 4.77Q228.03 5.02 228.16 5.42Q228.29 5.82 228.29 6.40L228.29 6.40L228.29 10.21L227.29 10.21L227.29 6.39Q227.29 5.93 227.16 5.65Q227.02 5.38 226.76 5.25Q226.51 5.12 226.13 5.12L226.13 5.12Q225.76 5.12 225.46 5.28Q225.15 5.44 224.93 5.71Q224.72 5.98 224.60 6.34Q224.48 6.69 224.48 7.08ZM236.49 10.31L236.49 10.31Q235.89 10.31 235.40 10.11Q234.90 9.90 234.55 9.52Q234.20 9.15 234.01 8.63Q233.83 8.12 233.83 7.50L233.83 7.50L233.83 7.28Q233.83 6.57 234.03 6.01Q234.24 5.46 234.60 5.07Q234.96 4.68 235.42 4.48Q235.88 4.29 236.37 4.29L236.37 4.29Q236.99 4.29 237.44 4.50Q237.90 4.72 238.19 5.10Q238.48 5.48 238.62 6.00Q238.76 6.52 238.76 7.13L238.76 7.13L238.76 7.58L234.42 7.58L234.42 6.77L237.76 6.77L237.76 6.69Q237.74 6.31 237.60 5.94Q237.47 5.58 237.17 5.34Q236.88 5.10 236.37 5.10L236.37 5.10Q236.03 5.10 235.74 5.24Q235.46 5.39 235.25 5.67Q235.05 5.95 234.94 6.35Q234.82 6.75 234.82 7.28L234.82 7.28L234.82 7.50Q234.82 7.92 234.94 8.28Q235.06 8.64 235.28 8.92Q235.50 9.19 235.82 9.35Q236.14 9.50 236.55 9.50L236.55 9.50Q237.07 9.50 237.44 9.29Q237.81 9.07 238.08 8.71L238.08 8.71L238.68 9.19Q238.49 9.47 238.20 9.73Q237.91 9.99 237.49 10.15Q237.07 10.31 236.49 10.31ZM245.17 4.39L245.20 5.31L245.20 10.21L244.21 10.21L244.21 4.39L245.17 4.39ZM247.02 4.36L247.02 4.36L247.01 5.29Q246.89 5.26 246.78 5.25Q246.67 5.24 246.53 5.24L246.53 5.24Q246.18 5.24 245.92 5.35Q245.66 5.46 245.47 5.65Q245.29 5.84 245.19 6.11Q245.08 6.38 245.05 6.69L245.05 6.69L244.77 6.85Q244.77 6.33 244.87 5.87Q244.98 5.40 245.20 5.05Q245.42 4.69 245.76 4.49Q246.10 4.29 246.57 4.29L246.57 4.29Q246.68 4.29 246.82 4.31Q246.96 4.33 247.02 4.36ZM255.61 8.66L255.61 8.66Q255.61 8.45 255.51 8.26Q255.42 8.08 255.13 7.93Q254.84 7.77 254.27 7.66L254.27 7.66Q253.79 7.56 253.40 7.42Q253.01 7.28 252.74 7.08Q252.47 6.88 252.32 6.61Q252.18 6.34 252.18 5.98L252.18 5.98Q252.18 5.64 252.33 5.33Q252.48 5.03 252.76 4.79Q253.05 4.55 253.44 4.42Q253.84 4.29 254.33 4.29L254.33 4.29Q255.03 4.29 255.52 4.53Q256.02 4.78 256.28 5.19Q256.54 5.60 256.54 6.10L256.54 6.10L255.55 6.10Q255.55 5.86 255.41 5.63Q255.26 5.40 254.99 5.25Q254.72 5.10 254.33 5.10L254.33 5.10Q253.92 5.10 253.66 5.23Q253.41 5.35 253.29 5.55Q253.17 5.74 253.17 5.96L253.17 5.96Q253.17 6.12 253.23 6.24Q253.29 6.37 253.43 6.47Q253.58 6.58 253.84 6.67Q254.10 6.76 254.51 6.85L254.51 6.85Q255.23 7.01 255.69 7.24Q256.15 7.47 256.38 7.79Q256.60 8.12 256.60 8.59L256.60 8.59Q256.60 8.97 256.44 9.29Q256.28 9.60 255.99 9.83Q255.69 10.06 255.28 10.19Q254.87 10.31 254.36 10.31L254.36 10.31Q253.59 10.31 253.06 10.04Q252.52 9.76 252.25 9.33Q251.98 8.89 251.98 8.41L251.98 8.41L252.98 8.41Q253.00 8.82 253.21 9.06Q253.43 9.30 253.74 9.40Q254.05 9.50 254.36 9.50L254.36 9.50Q254.76 9.50 255.04 9.39Q255.32 9.28 255.46 9.09Q255.61 8.91 255.61 8.66Z" transform="translate(0, 0)"></path></g></svg> <svg y="298.27500915527344" viewBox="2 5.010000228881836 493.9200134277344 17.69999885559082" x="40.5399919128418" height="17.69999885559082" width="493.9200134277344" xmlns="http://www.w3.org/2000/svg" style="overflow: visible;"><g fill="#874646" fill-opacity="1" style=""><path d="M8.95 13.86L8.14 14.42L3.77 14.42L3.75 12.58L7.71 12.58Q8.69 12.58 9.43 12.25Q10.16 11.92 10.57 11.30Q10.98 10.68 10.98 9.82L10.98 9.82Q10.98 8.87 10.61 8.27Q10.25 7.68 9.51 7.40Q8.78 7.12 7.64 7.12L7.64 7.12L4.28 7.12L4.28 22.47L2.00 22.47L2.00 5.25L7.64 5.25Q8.96 5.25 10.01 5.52Q11.05 5.78 11.77 6.34Q12.50 6.91 12.88 7.77Q13.26 8.63 13.26 9.84L13.26 9.84Q13.26 10.90 12.71 11.76Q12.17 12.62 11.21 13.16Q10.24 13.71 8.95 13.86L8.95 13.86ZM8.03 22.47L8.03 22.47L2.87 22.47L4.16 20.61L8.03 20.61Q9.12 20.61 9.88 20.24Q10.64 19.86 11.05 19.16Q11.45 18.47 11.45 17.53L11.45 17.53Q11.45 16.57 11.11 15.87Q10.76 15.17 10.03 14.80Q9.30 14.42 8.14 14.42L8.14 14.42L4.88 14.42L4.91 12.58L9.35 12.58L9.84 13.25Q11.08 13.35 11.94 13.95Q12.81 14.55 13.26 15.47Q13.72 16.39 13.72 17.50L13.72 17.50Q13.72 19.11 13.02 20.22Q12.31 21.32 11.03 21.90Q9.76 22.47 8.03 22.47ZM26.42 20.61L35.54 20.61L35.54 22.47L26.42 22.47L26.42 20.61ZM24.60 5.25L26.88 5.25L26.88 22.47L24.60 22.47L24.60 5.25ZM26.42 12.65L34.33 12.65L34.33 14.51L26.42 14.51L26.42 12.65ZM26.42 5.25L35.42 5.25L35.42 7.12L26.42 7.12L26.42 5.25ZM47.71 20.61L56.32 20.61L56.32 22.47L47.71 22.47L47.71 20.61ZM45.87 5.25L48.16 5.25L48.16 22.47L45.87 22.47L45.87 5.25ZM68.26 20.61L76.87 20.61L76.87 22.47L68.26 22.47L68.26 20.61ZM66.43 5.25L68.71 5.25L68.71 22.47L66.43 22.47L66.43 5.25ZM90.30 22.47L91.51 17.27L94.93 5.25L96.58 5.25L95.62 9.92L91.95 22.47L90.30 22.47ZM85.70 5.25L87.97 5.25L90.69 17.03L91.51 22.47L89.88 22.47L85.70 5.25ZM100.15 22.47L101.01 17.02L103.67 5.25L105.95 5.25L101.79 22.47L100.15 22.47ZM95.20 5.25L96.83 5.25L100.15 17.27L101.36 22.47L99.72 22.47L96.17 9.92L95.20 5.25ZM129.23 13.32L129.23 13.32L129.23 14.40Q129.23 16.34 128.75 17.88Q128.26 19.42 127.35 20.50Q126.44 21.57 125.17 22.14Q123.90 22.71 122.33 22.71L122.33 22.71Q120.80 22.71 119.53 22.14Q118.26 21.57 117.33 20.50Q116.40 19.42 115.89 17.88Q115.38 16.34 115.38 14.40L115.38 14.40L115.38 13.32Q115.38 11.38 115.89 9.85Q116.39 8.31 117.31 7.23Q118.24 6.15 119.51 5.58Q120.78 5.01 122.30 5.01L122.30 5.01Q123.88 5.01 125.15 5.58Q126.42 6.15 127.34 7.23Q128.25 8.31 128.74 9.85Q129.23 11.38 129.23 13.32ZM126.97 14.40L126.97 14.40L126.97 13.29Q126.97 11.76 126.66 10.57Q126.35 9.39 125.74 8.59Q125.14 7.78 124.27 7.37Q123.40 6.95 122.30 6.95L122.30 6.95Q121.24 6.95 120.38 7.37Q119.52 7.78 118.92 8.59Q118.31 9.39 117.97 10.57Q117.64 11.76 117.64 13.29L117.64 13.29L117.64 14.40Q117.64 15.95 117.97 17.14Q118.31 18.33 118.93 19.14Q119.55 19.95 120.41 20.37Q121.26 20.78 122.33 20.78L122.33 20.78Q123.44 20.78 124.30 20.37Q125.17 19.95 125.76 19.14Q126.36 18.33 126.67 17.14Q126.97 15.95 126.97 14.40ZM153.41 13.32L153.41 13.32L153.41 14.40Q153.41 16.34 152.92 17.88Q152.44 19.42 151.53 20.50Q150.61 21.57 149.34 22.14Q148.07 22.71 146.50 22.71L146.50 22.71Q144.97 22.71 143.70 22.14Q142.43 21.57 141.50 20.50Q140.57 19.42 140.07 17.88Q139.56 16.34 139.56 14.40L139.56 14.40L139.56 13.32Q139.56 11.38 140.06 9.85Q140.56 8.31 141.48 7.23Q142.41 6.15 143.68 5.58Q144.95 5.01 146.48 5.01L146.48 5.01Q148.05 5.01 149.32 5.58Q150.59 6.15 151.51 7.23Q152.42 8.31 152.92 9.85Q153.41 11.38 153.41 13.32ZM151.15 14.40L151.15 14.40L151.15 13.29Q151.15 11.76 150.83 10.57Q150.52 9.39 149.92 8.59Q149.31 7.78 148.44 7.37Q147.58 6.95 146.48 6.95L146.48 6.95Q145.41 6.95 144.55 7.37Q143.70 7.78 143.09 8.59Q142.48 9.39 142.15 10.57Q141.82 11.76 141.82 13.29L141.82 13.29L141.82 14.40Q141.82 15.95 142.15 17.14Q142.48 18.33 143.10 19.14Q143.72 19.95 144.58 20.37Q145.43 20.78 146.50 20.78L146.50 20.78Q147.61 20.78 148.47 20.37Q149.34 19.95 149.93 19.14Q150.53 18.33 150.84 17.14Q151.15 15.95 151.15 14.40ZM168.98 22.47L168.98 22.47L165.38 22.47L165.41 20.61L168.98 20.61Q170.83 20.61 172.06 19.84Q173.29 19.06 173.91 17.66Q174.53 16.26 174.53 14.38L174.53 14.38L174.53 13.33Q174.53 11.85 174.17 10.70Q173.82 9.54 173.13 8.75Q172.45 7.95 171.46 7.53Q170.47 7.12 169.19 7.12L169.19 7.12L165.31 7.12L165.31 5.25L169.19 5.25Q170.88 5.25 172.28 5.81Q173.68 6.37 174.69 7.43Q175.70 8.49 176.24 9.99Q176.79 11.48 176.79 13.35L176.79 13.35L176.79 14.38Q176.79 16.25 176.24 17.75Q175.70 19.24 174.67 20.29Q173.65 21.35 172.21 21.91Q170.78 22.47 168.98 22.47ZM164.32 5.25L166.60 5.25L166.60 22.47L164.32 22.47L164.32 5.25ZM196.90 18.12L196.90 18.12Q196.90 17.52 196.72 17.05Q196.53 16.58 196.08 16.20Q195.62 15.82 194.83 15.48Q194.03 15.14 192.81 14.78L192.81 14.78Q191.53 14.40 190.50 13.94Q189.47 13.47 188.74 12.87Q188.01 12.26 187.62 11.48Q187.23 10.70 187.23 9.70L187.23 9.70Q187.23 8.69 187.64 7.84Q188.06 6.99 188.83 6.36Q189.60 5.72 190.68 5.37Q191.76 5.01 193.08 5.01L193.08 5.01Q195.02 5.01 196.38 5.75Q197.73 6.49 198.44 7.68Q199.15 8.87 199.15 10.22L199.15 10.22L196.88 10.22Q196.88 9.25 196.46 8.50Q196.05 7.75 195.21 7.31Q194.37 6.88 193.08 6.88L193.08 6.88Q191.86 6.88 191.07 7.25Q190.28 7.62 189.89 8.24Q189.51 8.87 189.51 9.67L189.51 9.67Q189.51 10.22 189.74 10.66Q189.97 11.11 190.46 11.48Q190.95 11.86 191.72 12.18Q192.48 12.50 193.54 12.80L193.54 12.80Q195.01 13.21 196.07 13.72Q197.14 14.23 197.83 14.86Q198.52 15.49 198.86 16.29Q199.20 17.09 199.20 18.09L199.20 18.09Q199.20 19.15 198.77 20.00Q198.34 20.85 197.55 21.45Q196.76 22.06 195.65 22.38Q194.55 22.71 193.19 22.71L193.19 22.71Q191.99 22.71 190.84 22.38Q189.69 22.04 188.75 21.38Q187.81 20.72 187.24 19.74Q186.68 18.77 186.68 17.48L186.68 17.48L188.95 17.48Q188.95 18.37 189.30 19.00Q189.64 19.63 190.24 20.05Q190.83 20.46 191.60 20.66Q192.36 20.85 193.19 20.85L193.19 20.85Q194.38 20.85 195.21 20.52Q196.04 20.19 196.47 19.57Q196.90 18.96 196.90 18.12ZM224.96 20.61L233.57 20.61L233.57 22.47L224.96 22.47L224.96 20.61ZM223.13 5.25L225.41 5.25L225.41 22.47L223.13 22.47L223.13 5.25ZM250.09 5.25L250.06 6.78L244.36 22.47L242.03 22.47L248.59 5.25L250.09 5.25ZM257.18 22.47L254.84 22.47L249.12 6.78L249.09 5.25L250.59 5.25L257.18 22.47ZM244.87 16.10L254.54 16.10L254.54 17.96L244.87 17.96L244.87 16.10ZM277.98 5.25L280.24 5.25L280.24 22.47L277.94 22.47L269.27 9.19L269.27 22.47L266.99 22.47L266.99 5.25L269.27 5.25L277.98 18.57L277.98 5.25ZM293.60 20.61L302.72 20.61L302.72 22.47L293.60 22.47L293.60 20.61ZM291.78 5.25L294.06 5.25L294.06 22.47L291.78 22.47L291.78 5.25ZM293.60 12.65L301.51 12.65L301.51 14.51L293.60 14.51L293.60 12.65ZM293.60 5.25L302.60 5.25L302.60 7.12L293.60 7.12L293.60 5.25ZM331.54 22.47L332.13 19.86L337.20 5.25L339.67 5.25L333.30 22.47L331.54 22.47ZM324.91 5.25L327.39 5.25L332.41 19.86L333.04 22.47L331.28 22.47L324.91 5.25ZM351.32 20.61L360.44 20.61L360.44 22.47L351.32 22.47L351.32 20.61ZM349.50 5.25L351.78 5.25L351.78 22.47L349.50 22.47L349.50 5.25ZM351.32 12.65L359.23 12.65L359.23 14.51L351.32 14.51L351.32 12.65ZM351.32 5.25L360.32 5.25L360.32 7.12L351.32 7.12L351.32 5.25ZM381.76 5.25L384.02 5.25L384.02 22.47L381.73 22.47L373.06 9.19L373.06 22.47L370.77 22.47L370.77 5.25L373.06 5.25L381.76 18.57L381.76 5.25ZM399.68 5.25L401.92 5.25L401.92 22.47L399.68 22.47L399.68 5.25ZM394.15 5.25L407.46 5.25L407.46 7.12L394.15 7.12L394.15 5.25ZM427.37 16.90L427.37 5.25L429.64 5.25L429.64 16.90Q429.64 18.84 428.78 20.13Q427.92 21.42 426.49 22.06Q425.07 22.71 423.40 22.71L423.40 22.71Q421.65 22.71 420.24 22.06Q418.82 21.42 418.00 20.13Q417.18 18.84 417.18 16.90L417.18 16.90L417.18 5.25L419.44 5.25L419.44 16.90Q419.44 18.25 419.94 19.12Q420.43 20.00 421.32 20.42Q422.22 20.85 423.40 20.85L423.40 20.85Q424.59 20.85 425.49 20.42Q426.38 20.00 426.88 19.12Q427.37 18.25 427.37 16.90L427.37 16.90ZM440.74 22.47L440.74 5.25L446.44 5.25Q448.38 5.25 449.72 5.84Q451.06 6.43 451.76 7.59Q452.47 8.74 452.47 10.42L452.47 10.42Q452.47 11.60 451.99 12.58Q451.51 13.55 450.62 14.23Q449.72 14.91 448.48 15.24L448.48 15.24L447.84 15.49L442.49 15.49L442.46 13.64L446.51 13.64Q447.74 13.64 448.55 13.20Q449.37 12.77 449.78 12.04Q450.20 11.31 450.20 10.42L450.20 10.42Q450.20 9.43 449.81 8.68Q449.42 7.94 448.58 7.53Q447.75 7.12 446.44 7.12L446.44 7.12L443.02 7.12L443.02 22.47L440.74 22.47ZM453.24 22.47L450.80 22.47L446.61 14.66L448.99 14.65L453.24 22.33L453.24 22.47ZM464.99 20.61L474.11 20.61L474.11 22.47L464.99 22.47L464.99 20.61ZM463.17 5.25L465.45 5.25L465.45 22.47L463.17 22.47L463.17 5.25ZM464.99 12.65L472.90 12.65L472.90 14.51L464.99 14.51L464.99 12.65ZM464.99 5.25L473.99 5.25L473.99 7.12L464.99 7.12L464.99 5.25ZM493.62 18.12L493.62 18.12Q493.62 17.52 493.44 17.05Q493.26 16.58 492.80 16.20Q492.35 15.82 491.55 15.48Q490.75 15.14 489.53 14.78L489.53 14.78Q488.25 14.40 487.22 13.94Q486.20 13.47 485.46 12.87Q484.73 12.26 484.34 11.48Q483.95 10.70 483.95 9.70L483.95 9.70Q483.95 8.69 484.36 7.84Q484.78 6.99 485.55 6.36Q486.33 5.72 487.40 5.37Q488.48 5.01 489.80 5.01L489.80 5.01Q491.74 5.01 493.10 5.75Q494.45 6.49 495.16 7.68Q495.87 8.87 495.87 10.22L495.87 10.22L493.60 10.22Q493.60 9.25 493.18 8.50Q492.77 7.75 491.93 7.31Q491.09 6.88 489.80 6.88L489.80 6.88Q488.58 6.88 487.79 7.25Q487.00 7.62 486.62 8.24Q486.23 8.87 486.23 9.67L486.23 9.67Q486.23 10.22 486.46 10.66Q486.69 11.11 487.18 11.48Q487.67 11.86 488.44 12.18Q489.20 12.50 490.26 12.80L490.26 12.80Q491.73 13.21 492.79 13.72Q493.86 14.23 494.55 14.86Q495.24 15.49 495.58 16.29Q495.92 17.09 495.92 18.09L495.92 18.09Q495.92 19.15 495.49 20.00Q495.07 20.85 494.27 21.45Q493.48 22.06 492.37 22.38Q491.27 22.71 489.91 22.71L489.91 22.71Q488.71 22.71 487.56 22.38Q486.41 22.04 485.47 21.38Q484.53 20.72 483.97 19.74Q483.40 18.77 483.40 17.48L483.40 17.48L485.67 17.48Q485.67 18.37 486.02 19.00Q486.36 19.63 486.96 20.05Q487.56 20.46 488.32 20.66Q489.08 20.85 489.91 20.85L489.91 20.85Q491.10 20.85 491.93 20.52Q492.76 20.19 493.19 19.57Q493.62 18.96 493.62 18.12Z" transform="translate(0, 0)"></path></g></svg></svg>